<?xml version="1.0" encoding="utf-8"?>
<!-- Generator: Adobe Illustrator 18.0.0, SVG Export Plug-In . SVG Version: 6.00 Build 0)  -->
<!DOCTYPE svg PUBLIC "-//W3C//DTD SVG 1.1//EN" "http://www.w3.org/Graphics/SVG/1.1/DTD/svg11.dtd">
<svg version="1.1" id="Layer_1" xmlns="http://www.w3.org/2000/svg" xmlns:xlink="http://www.w3.org/1999/xlink" x="0px" y="0px"
	 viewBox="0 0 400 400" style="enable-background:new 0 0 400 400;" xml:space="preserve">
<path style="fill:#776E66;stroke:#776E66;stroke-miterlimit:10;" d="M92.792,105.556c-68.428,72.064-79.13,172.995-23.902,225.437
	s168.619,49.736,242.69-16.515c19.568-17.502,37.25-58.411,29.299-76.433c-9.554-21.656-41.957-30.176-50.318-36.177
	c-64.968-46.625,66.317-83.578,35.714-121.458c-2.939-3.638-6.133-7.105-9.585-10.382C261.463,17.585,161.22,33.492,92.792,105.556z
	"/>
<circle style="fill:#FFFFFF;stroke:#776E66;stroke-miterlimit:10;" cx="289.261" cy="254.433" r="31.847"/>
<ellipse style="fill:#FFFFFF;stroke:#776E66;stroke-miterlimit:10;" cx="222.987" cy="71.446" rx="22.987" ry="23.567"/>
<ellipse style="fill:#FFFFFF;stroke:#776E66;stroke-miterlimit:10;" cx="169.223" cy="85.471" rx="23.885" ry="21.656"/>
<ellipse style="fill:#FFFFFF;stroke:#776E66;stroke-miterlimit:10;" cx="126.599" cy="115.828" rx="22.93" ry="20.701"/>
<ellipse style="fill:#FFFFFF;stroke:#776E66;stroke-miterlimit:10;" cx="94.382" cy="165.153" rx="24.841" ry="23.885"/>
<ellipse style="fill:#FFFFFF;stroke:#776E66;stroke-miterlimit:10;" cx="73.204" cy="268.134" rx="21.019" ry="18.153"/>
<ellipse style="fill:#FFFFFF;stroke:#776E66;stroke-miterlimit:10;" cx="149.767" cy="335.631" rx="21.429" ry="19.427"/>
<ellipse style="fill:#FFFFFF;stroke:#776E66;stroke-miterlimit:10;" cx="206.452" cy="335.943" rx="21.962" ry="21.656"/>
<ellipse style="fill:#FFFFFF;stroke:#776E66;stroke-miterlimit:10;" cx="100.764" cy="313.21" rx="22.236" ry="22.611"/>
<ellipse style="fill:#FFFFFF;stroke:#776E66;stroke-miterlimit:10;" cx="76.732" cy="216.561" rx="24.204" ry="22.293"/>
<ellipse style="fill:#FFFFFF;stroke:#776E66;stroke-miterlimit:10;" cx="278.771" cy="79.879" rx="17.834" ry="21.019"/>
</svg>
